<svg width="2000" height="2000" viewBox="0 0 2000 2000" fill="none" xmlns="http://www.w3.org/2000/svg">
<rect width="1200" height="1200" transform="translate(400 400)" fill="white"/>
<g clip-path="url(#clip0_510_37)">
<path d="M2000 1000.17L2000 0.333496L1000.17 0.333496L0.333458 0.333496L0.333458 1000.17V2000H1000.17L2000 2000V1000.17ZM611.232 1436.49C565.439 1421.1 531.845 1392.3 511.448 1351.11C498.05 1324.11 495.451 1312.31 495.251 1278.12C495.251 1245.73 498.45 1231.73 511.248 1206.13C514.848 1198.93 612.831 1028.56 728.812 827.196C880.987 563.64 942.376 458.657 948.975 451.658C954.174 446.259 963.173 439.66 969.572 436.661C979.57 432.062 983.769 431.262 1000.17 431.262C1016.56 431.262 1020.76 432.062 1030.56 436.661C1036.76 439.46 1045.76 445.859 1050.56 450.658C1056.96 457.057 1115.75 557.441 1274.32 832.195C1392.7 1037.36 1491.88 1211.33 1494.88 1218.93C1518.08 1276.92 1505.28 1343.51 1461.49 1391.5C1440.29 1414.5 1405.9 1433.69 1373.9 1439.89C1369.11 1440.89 1200.13 1441.49 995.168 1441.29L625.229 1441.09L611.232 1436.49Z" fill="gray"/>
<path d="M1357.11 1312.31C1371.91 1305.72 1381.5 1289.32 1379.5 1274.12C1378.9 1269.12 1341.51 1200.33 1267.92 1068.96C1207.13 960.173 1136.34 830.795 1110.75 781.203L1064.16 691.218V1003.77V1316.11H1206.53C1340.51 1316.11 1349.51 1315.71 1357.11 1312.31Z" fill="gray"/>
<path d="M936.178 1003.77V691.218L888.586 783.203C862.39 833.794 791.602 963.373 731.212 1071.15C623.83 1263.12 621.43 1267.32 621.43 1278.12C621.23 1291.12 625.63 1299.72 636.828 1308.92L644.626 1315.11L790.402 1315.71L936.178 1316.11L936.178 1003.77Z" fill="gray"/>
</g>
<defs>
<clipPath id="clip0_510_37">
<rect width="1999.67" height="1999.67" fill="white" transform="matrix(-1 0 0 -1 2000 2000)"/>
</clipPath>
</defs>
</svg>
